<svg xmlns="http://www.w3.org/2000/svg" viewBox="0 0 28 20"><defs><style>.cls-1{fill:#e10203;}</style></defs><title>station-monetique</title><g id="separateur-titre"><path d="M15.51,12.57h-1v1.25h1a1,1,0,0,0,.69-.18.56.56,0,0,0,.2-.47.53.53,0,0,0-.19-.43A1.14,1.14,0,0,0,15.51,12.57Z"/><path d="M16,11.25a.57.57,0,0,0,.17-.44.54.54,0,0,0-.17-.42,1,1,0,0,0-.61-.15h-.84V11.4h.83A1,1,0,0,0,16,11.25Z"/><path d="M19.67,6.23H4.32a2,2,0,0,0-2,2v7.82a2,2,0,0,0,2,2H19.67a2,2,0,0,0,2-2V8.23A2,2,0,0,0,19.67,6.23Zm-8.5,8.06a2.27,2.27,0,0,1-.89.71,3.35,3.35,0,0,1-1.36.24A4,4,0,0,1,7.28,15a2.58,2.58,0,0,1-1.09-1,3.47,3.47,0,0,1-.46-1.88,3.17,3.17,0,0,1,.81-2.34,3.06,3.06,0,0,1,2.29-.82,3.1,3.1,0,0,1,1.83.47,2.71,2.71,0,0,1,1,1.44L10,11.17a1.31,1.31,0,0,0-.19-.41,1,1,0,0,0-.39-.33,1.07,1.07,0,0,0-.51-.12,1.11,1.11,0,0,0-1,.52A2.13,2.13,0,0,0,7.63,12a2.27,2.27,0,0,0,.31,1.4,1.08,1.08,0,0,0,.87.38,1.06,1.06,0,0,0,.82-.31,1.89,1.89,0,0,0,.41-.89l1.66.5A3,3,0,0,1,11.17,14.29Zm6.91,0a1.64,1.64,0,0,1-.6.6,2,2,0,0,1-.72.2,8.06,8.06,0,0,1-.85.09H12.63V9h3.55a2,2,0,0,1,1.37.44A1.46,1.46,0,0,1,18,10.52a1.36,1.36,0,0,1-.34.94,1.53,1.53,0,0,1-.66.41,1.69,1.69,0,0,1,1,.54,1.52,1.52,0,0,1,.32,1A1.68,1.68,0,0,1,18.08,14.25Z"/><path class="cls-1" d="M24.64,4l-.19-1.07A1.17,1.17,0,0,0,23.1,2L10.8,4.11a1.17,1.17,0,0,0-1,1.12h7.69Z"/><path class="cls-1" d="M25.67,10.22l-.7-4-2.27.43V12l2-.44A1.19,1.19,0,0,0,25.67,10.22Z"/></g></svg>